<?xml version="1.0" encoding="utf-8"?>
<!-- Generator: Adobe Illustrator 25.4.1, SVG Export Plug-In . SVG Version: 6.00 Build 0)  -->
<svg version="1.1" id="Layer_1" xmlns="http://www.w3.org/2000/svg" xmlns:xlink="http://www.w3.org/1999/xlink" x="0px" y="0px"
	 viewBox="0 0 190.23 139.45" style="enable-background:new 0 0 190.23 139.45;" xml:space="preserve">
<g>
	<path d="M186.92,0v23.24c-11.59,0-22.82,3.91-33.69,11.72s-16.31,17.32-16.31,28.52c0,6.38,2.61,9.57,7.81,9.57
		c1.17,0,3.52-0.39,7.03-1.17c3.65-0.78,6.51-1.17,8.59-1.17c7.29,0,14.1,2.9,20.41,8.69c6.32,5.78,9.48,13.76,9.48,23.92
		s-3.29,18.72-9.86,25.68c-6.58,6.96-15.53,10.45-26.86,10.45c-13.41,0-24.32-5.11-32.71-15.33c-8.4-10.22-12.6-24.45-12.6-42.68
		c0-25.13,7.68-44.82,23.05-59.08C146.62,8.1,165.18,0.65,186.92,0z M78.72,0v23.24c-12.24,0-23.63,3.97-34.18,11.91
		S28.72,52.53,28.72,63.47c0,6.38,2.61,9.57,7.81,9.57c1.17,0,3.52-0.39,7.03-1.17c3.65-0.78,6.51-1.17,8.59-1.17
		c7.29,0,14.1,2.9,20.41,8.69c6.32,5.79,9.47,13.77,9.47,23.93c0,9.89-3.25,18.39-9.77,25.49c-6.5,7.09-15.48,10.64-26.94,10.64
		c-13.93,0-24.97-5.18-33.11-15.53S0,99.41,0,81.44c0-25,7.62-44.66,22.85-58.98C38.09,8.13,56.71,0.65,78.72,0z"/>
</g>
</svg>
