<?xml version="1.0" encoding="utf-8"?>
<!-- Generator: Adobe Illustrator 25.4.1, SVG Export Plug-In . SVG Version: 6.00 Build 0)  -->
<svg version="1.1" id="Layer_1" xmlns="http://www.w3.org/2000/svg" xmlns:xlink="http://www.w3.org/1999/xlink" x="0px" y="0px"
	 viewBox="0 0 190.23 139.45" style="enable-background:new 0 0 190.23 139.45;" xml:space="preserve">
<g>
	<path d="M3.32,139.45v-23.24c11.59,0,22.82-3.91,33.69-11.72c10.87-7.81,16.31-17.32,16.31-28.52c0-6.38-2.61-9.57-7.81-9.57
		c-1.17,0-3.52,0.39-7.03,1.17c-3.65,0.78-6.51,1.17-8.59,1.17c-7.29,0-14.1-2.9-20.41-8.69C3.16,54.27,0,46.29,0,36.13
		s3.29-18.72,9.86-25.68C16.44,3.49,25.39,0,36.72,0c13.41,0,24.32,5.11,32.71,15.33c8.4,10.22,12.6,24.45,12.6,42.68
		c0,25.13-7.68,44.82-23.05,59.08C43.62,131.35,25.06,138.8,3.32,139.45z M111.52,139.45v-23.24c12.24,0,23.63-3.97,34.18-11.91
		c10.55-7.94,15.82-17.38,15.82-28.32c0-6.38-2.61-9.57-7.81-9.57c-1.17,0-3.52,0.39-7.03,1.17c-3.65,0.78-6.51,1.17-8.59,1.17
		c-7.29,0-14.1-2.9-20.41-8.69c-6.32-5.79-9.47-13.77-9.47-23.93c0-9.89,3.25-18.39,9.77-25.49C124.48,3.55,133.46,0,144.92,0
		c13.93,0,24.97,5.18,33.11,15.53c8.14,10.35,12.21,24.51,12.21,42.48c0,25-7.62,44.66-22.85,58.98
		C152.15,131.32,133.53,138.8,111.52,139.45z"/>
</g>
</svg>
